<?xml version="1.0" standalone="no"?>
<!DOCTYPE svg PUBLIC "-//W3C//DTD SVG 20010904//EN"
 "http://www.w3.org/TR/2001/REC-SVG-20010904/DTD/svg10.dtd">
<svg version="1.0" xmlns="http://www.w3.org/2000/svg"
 width="1368.000000pt" height="1368.000000pt" viewBox="0 0 1368.000000 1368.000000"
 preserveAspectRatio="xMidYMid meet">
<metadata>
Created by potrace 1.11, written by Peter Selinger 2001-2013
</metadata>
<g transform="translate(0.000000,1368.000000) scale(0.100000,-0.100000)"
fill="#000000" stroke="none">
<path d="M6585 13500 c-16 -27 -33 -50 -37 -50 -5 0 -8 -5 -8 -10 0 -6 -5 -16
-10 -23 -10 -11 -78 -113 -105 -156 -24 -37 -70 -106 -75 -111 -3 -3 -26 -36
-50 -75 -25 -38 -48 -74 -53 -80 -6 -8 -149 -222 -197 -295 -5 -8 -30 -44 -55
-80 -25 -36 -48 -72 -52 -80 -4 -8 -18 -31 -32 -51 -46 -64 -70 -101 -126
-188 -6 -9 -27 -41 -48 -71 -50 -75 -66 -98 -96 -145 -14 -22 -29 -44 -34 -50
-6 -8 -55 -82 -177 -265 -5 -8 -37 -55 -69 -105 -33 -49 -65 -95 -71 -102 -5
-7 -10 -15 -10 -19 0 -3 -13 -23 -30 -44 -16 -21 -30 -43 -30 -49 0 -6 -4 -11
-10 -11 -5 0 -10 -7 -10 -15 0 -9 -7 -18 -15 -21 -8 -4 -15 -11 -15 -18 0 -7
-7 -21 -15 -31 -9 -11 -42 -60 -75 -110 -32 -49 -63 -94 -67 -100 -5 -5 -20
-28 -33 -50 -13 -22 -28 -41 -32 -43 -4 -2 -8 -8 -8 -14 0 -5 -6 -15 -12 -23
-7 -7 -26 -36 -43 -64 -16 -28 -33 -51 -37 -51 -5 0 -8 -7 -8 -15 0 -8 -4 -15
-10 -15 -5 0 -10 -4 -10 -10 0 -5 -27 -49 -60 -97 -33 -48 -65 -95 -70 -103
-6 -8 -64 -96 -129 -195 -66 -99 -124 -185 -130 -192 -6 -7 -11 -17 -11 -23 0
-5 -4 -10 -10 -10 -5 0 -10 -4 -10 -9 0 -6 -15 -31 -32 -56 -18 -26 -38 -54
-43 -63 -30 -49 -71 -107 -77 -110 -5 -2 -8 -10 -8 -18 0 -8 -7 -17 -15 -20
-8 -4 -15 -12 -15 -19 0 -8 -11 -27 -25 -43 -14 -17 -25 -33 -25 -36 0 -4 -23
-39 -50 -79 -28 -40 -55 -79 -60 -87 -6 -8 -77 -116 -159 -240 -82 -124 -153
-229 -158 -235 -5 -5 -24 -35 -43 -65 -19 -30 -39 -60 -45 -67 -5 -6 -23 -34
-40 -62 -16 -28 -33 -51 -37 -51 -5 0 -8 -7 -8 -15 0 -8 -4 -15 -10 -15 -5 0
-10 -4 -10 -10 0 -8 -104 -167 -128 -195 -5 -6 -11 -15 -13 -20 -8 -20 -304
-460 -311 -463 -5 -2 -8 -8 -8 -13 0 -5 -12 -27 -27 -48 -32 -44 -41 -58 -85
-126 -18 -27 -36 -51 -40 -53 -5 -2 -8 -10 -8 -18 0 -8 -4 -14 -10 -14 -5 0
-10 -5 -10 -11 0 -6 -11 -25 -25 -43 -14 -18 -25 -36 -25 -39 0 -7 -25 -39
-46 -60 -7 -7 13 -57 68 -166 43 -85 78 -161 78 -167 0 -7 3 -14 8 -16 8 -4
73 -134 71 -144 0 -4 3 -10 8 -13 12 -9 73 -131 73 -147 0 -7 3 -14 8 -16 9
-4 224 -434 222 -444 -1 -4 2 -10 7 -13 11 -8 37 -63 35 -73 -1 -5 2 -8 7 -8
8 0 42 -72 40 -86 0 -4 3 -10 8 -13 12 -8 153 -293 153 -308 0 -6 3 -13 8 -15
8 -4 73 -134 71 -144 0 -4 3 -10 8 -13 12 -9 73 -131 73 -147 0 -7 3 -14 8
-16 9 -4 224 -434 222 -444 -1 -4 2 -10 7 -13 10 -8 159 -305 154 -310 -1 -2
1 -7 6 -10 4 -3 230 -451 501 -996 271 -545 497 -997 502 -1005 5 -8 113 -224
240 -480 127 -256 235 -472 240 -480 5 -8 23 -44 40 -80 17 -36 35 -72 40 -80
11 -19 153 -303 155 -310 0 -3 6 -14 13 -25 7 -11 60 -117 118 -235 58 -118
109 -222 114 -230 4 -8 119 -236 254 -507 135 -270 250 -494 255 -497 5 -4 6
8 1 29 -4 19 -4 37 1 40 4 3 4 16 -1 29 -4 12 -5 29 0 36 5 7 4 24 0 36 -5 13
-6 25 -2 28 4 2 5 36 2 76 -3 39 -3 73 -1 76 3 2 4 23 3 47 -3 60 -1 141 3
145 2 2 0 14 -5 27 -5 14 -5 26 3 34 8 8 7 11 -3 11 -10 0 -11 3 -3 11 6 6 8
23 3 44 -4 19 -5 37 -2 40 7 7 5 101 -2 114 -4 5 -3 12 2 14 4 3 5 37 2 77 -3
39 -3 73 -1 76 3 2 4 23 3 47 -3 60 -1 141 3 145 2 2 0 14 -5 27 -5 14 -5 26
3 34 8 8 8 11 -2 11 -7 0 -9 5 -5 12 7 11 9 77 4 103 -1 6 -1 13 0 18 4 17 3
75 -3 90 -4 10 -2 17 3 17 6 0 6 9 0 24 -5 13 -6 27 -3 30 8 8 8 69 0 90 -4
10 -4 23 0 29 8 13 7 102 -1 116 -4 5 -3 12 2 14 4 3 5 37 2 77 -3 39 -3 73
-1 76 3 2 4 23 3 47 -3 60 -1 141 3 145 2 2 0 14 -5 27 -5 14 -5 26 3 34 8 8
8 11 -2 11 -7 0 -9 5 -5 12 7 11 9 77 4 103 -1 6 -1 13 0 18 4 17 3 75 -3 90
-4 10 -2 17 3 17 6 0 6 9 0 24 -5 13 -6 27 -3 30 8 8 8 69 0 90 -4 10 -4 23 0
29 8 13 7 102 -1 116 -4 5 -3 12 2 14 4 3 5 37 2 77 -3 39 -3 73 -1 76 3 2 4
23 3 47 -3 60 -1 141 3 145 2 2 0 14 -5 27 -5 14 -5 26 3 34 8 8 7 11 -3 11
-9 0 -10 3 -5 9 6 6 8 51 5 106 -3 53 -3 99 -1 101 3 2 4 23 3 47 -3 71 -1
211 3 216 2 2 0 12 -6 22 -5 11 -6 19 -2 19 4 0 7 24 6 52 -3 58 -5 267 -2
283 0 6 0 28 0 50 -2 86 0 210 4 214 2 2 0 12 -6 22 -5 11 -6 19 -2 19 4 0 7
24 5 52 -3 65 -4 150 -2 163 4 26 1 105 -4 114 -4 5 -3 12 2 14 4 3 5 37 2 77
-3 39 -3 73 -1 76 3 2 4 23 3 47 -3 60 -1 141 3 145 2 2 0 14 -5 27 -5 14 -5
26 3 34 8 8 8 11 -2 11 -7 0 -9 5 -5 12 7 11 9 77 4 103 -1 6 -1 13 0 18 4 17
3 75 -3 90 -4 10 -2 17 3 17 6 0 6 9 0 24 -5 13 -6 27 -3 30 8 8 8 69 0 90 -4
10 -4 23 0 29 8 13 7 102 -1 116 -4 5 -3 12 2 14 4 3 5 37 2 77 -3 39 -3 73
-1 76 3 2 4 23 3 47 -3 60 -1 141 3 145 2 2 0 14 -5 27 -5 14 -5 26 3 34 8 8
8 11 -2 11 -7 0 -9 5 -5 12 7 11 9 77 4 103 -1 6 -1 13 0 18 4 17 3 75 -3 90
-4 10 -2 17 3 17 6 0 6 9 0 24 -5 13 -6 27 -3 30 8 8 8 69 0 90 -4 10 -4 23 0
29 8 13 7 102 -1 116 -4 5 -3 12 2 14 4 3 5 37 2 77 -3 39 -3 73 -1 76 3 2 4
23 3 47 -3 60 -1 141 3 145 2 2 0 14 -5 27 -5 14 -5 26 3 34 8 8 7 11 -3 11
-9 0 -10 3 -4 9 5 6 7 51 4 106 -3 53 -3 99 -1 101 3 2 4 23 3 47 -3 71 -1
211 3 216 2 2 0 12 -6 22 -5 11 -6 19 -2 19 4 0 7 24 6 52 -3 58 -5 267 -2
283 0 6 0 28 0 50 -2 86 0 210 4 214 2 2 0 12 -6 22 -5 11 -6 19 -2 19 4 0 7
24 6 52 -3 58 -5 267 -2 283 0 6 0 28 0 50 -2 86 0 210 4 214 2 2 0 12 -6 22
-5 11 -6 19 -2 19 4 0 7 24 6 52 -3 58 -5 267 -2 283 0 6 0 28 0 50 -2 86 0
210 4 214 2 2 0 12 -6 22 -5 11 -6 19 -2 19 4 0 7 24 5 52 -3 65 -4 150 -2
163 4 26 1 105 -4 114 -4 5 -3 12 2 14 4 3 5 37 2 77 -3 39 -3 73 -1 76 3 2 4
23 3 47 -3 60 -1 141 3 145 2 2 0 14 -5 27 -5 14 -5 26 3 34 8 8 8 11 -2 11
-7 0 -9 5 -5 12 7 11 9 77 4 103 -1 6 -1 13 0 18 4 17 3 75 -3 90 -4 10 -2 17
3 17 6 0 6 9 0 24 -5 13 -6 27 -3 30 8 8 8 69 0 90 -4 10 -4 23 0 29 8 13 7
102 -1 116 -4 5 -3 12 2 14 4 3 5 37 2 77 -3 39 -3 73 -1 76 3 2 4 23 3 47 -3
60 -1 141 3 145 2 2 0 14 -5 27 -5 14 -5 26 3 34 8 8 8 11 -2 11 -7 0 -9 5 -5
12 7 11 9 77 4 103 -1 6 -1 13 0 18 4 17 3 75 -3 90 -4 10 -2 17 3 17 6 0 6 9
0 24 -5 13 -6 27 -3 30 8 8 8 69 0 90 -4 10 -4 23 0 29 8 13 7 102 -1 116 -4
5 -3 12 2 14 4 3 5 37 2 77 -3 39 -3 73 -1 76 3 2 4 23 3 47 -3 60 -1 141 3
145 2 2 0 14 -5 27 -5 14 -5 26 3 34 8 8 7 11 -3 11 -9 0 -10 3 -4 9 5 6 7 51
4 106 -3 53 -3 99 -1 101 3 2 4 23 3 47 -3 71 -1 211 3 216 2 2 0 12 -6 22 -5
11 -6 19 -2 19 4 0 7 24 6 52 -3 58 -5 267 -2 283 0 6 0 28 0 50 -2 86 0 210
4 214 2 2 0 12 -5 22 -6 9 -6 19 -2 21 4 2 5 17 2 35 l-5 32 -30 -49z"/>
<path d="M7003 10690 l0 -2860 1909 0 c1049 0 1908 2 1908 4 0 8 -85 131 -92
134 -4 2 -8 8 -8 13 0 8 -97 158 -109 169 -8 7 -29 41 -38 60 -4 8 -9 17 -13
20 -3 3 -29 41 -58 85 -28 44 -55 85 -59 90 -5 6 -21 30 -38 55 -16 25 -33 47
-37 48 -5 2 -8 8 -8 13 0 11 -102 163 -112 167 -5 2 -8 8 -8 13 0 6 -20 39
-45 75 -25 35 -45 68 -45 73 0 5 -3 11 -7 13 -11 4 -153 217 -153 228 0 5 -3
10 -7 12 -11 5 -53 66 -53 77 0 5 -4 11 -8 13 -8 3 -163 233 -171 253 -2 5 -7
12 -10 15 -12 10 -71 101 -71 109 0 5 -3 11 -7 13 -11 4 -153 217 -153 228 0
5 -3 10 -8 12 -4 2 -35 46 -69 98 -35 52 -66 100 -71 105 -4 6 -30 44 -56 85
-27 41 -52 77 -57 78 -5 2 -9 8 -9 13 0 4 -29 52 -65 104 -36 53 -65 100 -65
105 0 4 -3 10 -7 12 -11 4 -73 97 -73 107 0 5 -3 11 -7 13 -5 2 -36 46 -70 98
-35 52 -66 100 -71 105 -4 6 -22 33 -39 60 -18 28 -36 55 -40 60 -36 48 -73
105 -73 114 0 6 -3 11 -7 11 -5 0 -21 23 -38 51 -16 28 -35 56 -40 62 -6 7
-25 35 -42 62 -18 28 -36 55 -40 60 -5 6 -23 33 -41 60 -18 28 -38 59 -46 70
-47 65 -186 279 -186 286 0 4 -3 9 -7 11 -11 5 -53 66 -53 77 0 5 -3 11 -8 13
-4 2 -35 46 -70 98 -34 52 -67 102 -72 110 -209 310 -490 735 -490 741 0 4 -3
9 -7 11 -11 4 -93 127 -93 138 0 5 -3 10 -7 12 -7 3 -90 123 -118 170 -5 9
-29 44 -52 78 -24 34 -43 66 -43 70 0 5 -3 10 -7 12 -11 4 -93 127 -93 138 0
5 -3 10 -7 12 -10 4 -113 156 -113 167 0 4 -11 17 -23 30 l-24 21 0 -2860z"/>
</g>
</svg>
