<?xml version="1.0" standalone="no"?>
<!DOCTYPE svg PUBLIC "-//W3C//DTD SVG 20010904//EN"
 "http://www.w3.org/TR/2001/REC-SVG-20010904/DTD/svg10.dtd">
<svg version="1.0" xmlns="http://www.w3.org/2000/svg"
 width="500.000000pt" height="500.000000pt" viewBox="0 0 500.000000 500.000000"
 preserveAspectRatio="xMidYMid meet">
<metadata>
Created by potrace 1.11, written by Peter Selinger 2001-2013
</metadata>
<g transform="translate(0.000000,500.000000) scale(0.100000,-0.100000)"
fill="#000000" stroke="none">
<path d="M2310 4768 c-63 -95 -118 -174 -122 -176 -5 -2 -8 -8 -8 -13 0 -8
-59 -99 -71 -109 -3 -3 -8 -10 -10 -15 -7 -19 -464 -700 -471 -703 -5 -2 -8
-7 -8 -11 0 -5 -45 -75 -100 -157 -121 -181 -85 -127 -305 -457 l-186 -278
698 -1395 698 -1396 3 1221 c1 671 1 1770 0 2441 l-3 1221 -115 -173z"/>
<path d="M2726 3900 c1 -572 3 -1043 6 -1045 3 -3 318 -4 700 -3 l695 3 -693
1040 c-382 572 -697 1041 -701 1042 -5 2 -7 -465 -7 -1037z"/>
</g>
</svg>
