<?xml version="1.0" standalone="no"?>
<!DOCTYPE svg PUBLIC "-//W3C//DTD SVG 20010904//EN"
 "http://www.w3.org/TR/2001/REC-SVG-20010904/DTD/svg10.dtd">
<svg version="1.0" xmlns="http://www.w3.org/2000/svg"
 width="500.000000pt" height="500.000000pt" viewBox="0 0 500.000000 500.000000"
 preserveAspectRatio="xMidYMid meet">
<metadata>
Created by potrace 1.11, written by Peter Selinger 2001-2013
</metadata>
<g transform="translate(0.000000,500.000000) scale(0.100000,-0.100000)"
fill="#000000" stroke="none">
<path d="M2158 4974 c-13 -15 -37 -44 -54 -63 -17 -20 -134 -160 -259 -311
-126 -151 -231 -277 -234 -280 -4 -3 -35 -41 -71 -85 -36 -44 -73 -89 -82
-100 -164 -195 -549 -669 -622 -767 -46 -61 -56 -82 -50 -100 3 -12 150 -369
324 -793 175 -423 381 -925 459 -1115 78 -190 146 -354 150 -365 5 -11 16 -36
24 -55 8 -19 79 -190 157 -380 78 -190 148 -358 155 -375 7 -16 27 -65 45
-108 36 -85 49 -94 30 -20 -6 26 -14 59 -16 73 -3 14 -9 39 -14 55 -8 24 -59
234 -75 305 -2 8 -9 38 -15 65 -6 28 -13 57 -15 65 -2 8 -24 98 -49 200 -24
102 -65 271 -90 375 -25 105 -69 283 -96 397 -28 113 -52 215 -54 225 -2 10
-16 67 -31 127 -15 59 -28 117 -31 127 -2 11 -6 27 -8 37 -3 9 -25 103 -51
207 -57 236 -148 611 -186 770 -16 66 -32 133 -35 148 -2 16 -5 32 -6 35 -1 4
32 77 74 162 97 198 312 641 478 985 37 77 116 239 174 359 59 120 104 221
102 223 -3 3 -15 -8 -28 -23z"/>
<path d="M2800 4996 c0 -2 46 -98 101 -213 56 -114 140 -287 186 -383 47 -96
116 -238 153 -315 121 -251 216 -447 307 -632 l89 -182 -17 -68 c-38 -158 -91
-379 -94 -393 -2 -8 -26 -108 -54 -222 -28 -114 -53 -216 -54 -225 -2 -10 -7
-29 -10 -43 -15 -55 -129 -526 -133 -545 -6 -29 -5 -28 -108 -450 -52 -214
-115 -475 -140 -580 -26 -104 -67 -275 -92 -380 -25 -104 -47 -197 -49 -205
-2 -8 -10 -44 -20 -78 -37 -145 2 -71 130 248 25 63 57 139 71 168 13 29 24
55 24 59 0 5 54 138 81 198 4 11 52 126 105 255 53 129 102 249 109 265 8 17
98 235 200 485 103 250 193 469 201 485 7 17 43 104 79 195 37 91 73 179 81
195 12 28 156 378 234 572 l34 82 -75 98 c-61 81 -238 301 -383 478 -191 233
-938 1125 -946 1130 -5 3 -10 4 -10 1z"/>
<path d="M2483 4137 c-18 -45 -123 -318 -233 -607 -110 -289 -212 -553 -225
-586 -13 -34 -22 -72 -20 -85 4 -22 103 -512 191 -949 19 -96 37 -184 38 -195
6 -32 15 -80 31 -155 8 -38 17 -82 20 -97 5 -31 14 -74 78 -393 25 -124 48
-236 51 -250 2 -14 11 -59 20 -100 8 -41 17 -88 20 -103 3 -16 17 -90 33 -164
27 -132 34 -142 46 -63 3 19 10 55 15 80 6 25 13 56 16 70 2 14 10 50 16 80 6
30 14 66 16 80 3 14 21 104 41 200 19 96 40 195 44 220 15 71 17 81 32 155 9
39 18 84 20 100 3 17 10 50 16 75 5 25 13 61 16 80 3 19 8 42 10 50 2 8 6 26
9 40 2 14 18 95 36 180 18 85 34 164 36 175 2 11 6 31 9 45 3 14 7 34 9 45 3
11 20 97 39 190 20 94 56 272 82 397 l46 227 -142 363 c-78 200 -150 383 -159
408 -40 105 -123 317 -135 345 -7 17 -29 73 -50 125 -20 52 -38 96 -39 97 -1
1 -16 -35 -33 -80z"/>
</g>
</svg>
