<?xml version="1.0" standalone="no"?><!-- Generator: Gravit.io --><svg xmlns="http://www.w3.org/2000/svg" xmlns:xlink="http://www.w3.org/1999/xlink" style="isolation:isolate" viewBox="0 0 1036.269 154.727" width="1036.269" height="154.727"><path d=" M 77.862 14.974 L 14.974 77.862 L 75.367 138.256 L 135.461 78.162" fill="none" vector-effect="non-scaling-stroke" stroke-width="2.995" stroke="#07c0e0" stroke-linejoin="miter" stroke-linecap="butt" stroke-miterlimit="10"/><path d=" M 175.989 138.954 L 175.989 78.062 L 235.384 78.062" fill="none" vector-effect="non-scaling-stroke" stroke-width="2.995" stroke="#07c0e0" stroke-linejoin="miter" stroke-linecap="butt" stroke-miterlimit="10"/><path d=" M 266.03 78.661 L 295.678 109.107 L 266.03 139.553 L 295.678 109.107 L 325.425 78.661" fill="none" vector-effect="non-scaling-stroke" stroke-width="2.995" stroke="#07c0e0" stroke-linejoin="miter" stroke-linecap="butt" stroke-miterlimit="10"/><path d=" M 405.983 78.062 L 376.335 78.062 L 346.588 108.508 L 405.983 108.508 L 376.335 138.954 L 346.588 138.954" fill="none" vector-effect="non-scaling-stroke" stroke-width="2.995" stroke="#07c0e0" stroke-linejoin="miter" stroke-linecap="butt" stroke-miterlimit="10"/><path d=" M 437.228 78.861 L 496.623 78.861 L 466.875 109.307 L 466.875 139.753" fill="none" vector-effect="non-scaling-stroke" stroke-width="2.995" stroke="#07c0e0" stroke-linejoin="miter" stroke-linecap="butt" stroke-miterlimit="10"/><path d=" M 556.617 78.861 L 542.941 78.861 L 534.955 109.307 L 556.617 109.307 L 578.378 109.307 L 570.392 78.861 L 556.617 78.861 Z " fill="none" vector-effect="non-scaling-stroke" stroke-width="2.995" stroke="#07c0e0" stroke-linejoin="miter" stroke-linecap="butt" stroke-miterlimit="10"/><line x1="534.955" y1="109.307" x2="526.969" y2="139.753" vector-effect="non-scaling-stroke" stroke-width="2.995" stroke="#07c0e0" stroke-linejoin="miter" stroke-linecap="butt" stroke-miterlimit="10"/><path d=" M 578.378 109.307 C 578.378 111.802 586.364 139.753 586.364 139.753" fill="none" vector-effect="non-scaling-stroke" stroke-width="2.995" stroke="#07c0e0" stroke-linejoin="miter" stroke-linecap="butt" stroke-miterlimit="10"/><path d=" M 618.407 78.062 L 618.407 124.979 L 632.383 138.954 L 677.802 138.954" fill="none" vector-effect="non-scaling-stroke" stroke-width="2.995" stroke="#07c0e0" stroke-linejoin="miter" stroke-linecap="butt" stroke-miterlimit="10"/><path d=" M 790.304 138.954 L 790.304 78.062 L 849.699 78.062" fill="none" vector-effect="non-scaling-stroke" stroke-width="2.995" stroke="#07c0e0" stroke-linejoin="miter" stroke-linecap="butt" stroke-miterlimit="10"/><path d=" M 931.854 78.062 L 902.106 78.062 L 872.459 108.508 L 931.854 108.508 L 902.106 138.954 L 872.459 138.954" fill="none" vector-effect="non-scaling-stroke" stroke-width="2.995" stroke="#07c0e0" stroke-linejoin="miter" stroke-linecap="butt" stroke-miterlimit="10"/><path d=" M 1021.296 78.062 L 991.648 78.062 L 961.901 108.508 L 1021.296 108.508 L 991.648 138.954 L 961.901 138.954" fill="none" vector-effect="non-scaling-stroke" stroke-width="2.995" stroke="#07c0e0" stroke-linejoin="miter" stroke-linecap="butt" stroke-miterlimit="10"/></svg>