<svg id="Colored" xmlns="http://www.w3.org/2000/svg" viewBox="0 0 287.15 420.7"><defs><style>.cls-1{fill:#19aad1;}.cls-1,.cls-2{stroke:#19aad1;stroke-miterlimit:10;}.cls-2{fill:#19aad1;}</style></defs><title>Crystal_RSS_Logo</title><path class="cls-1" d="M612,238.88S494,379,495,382,608,656,608,656L542,383Z" transform="translate(-494.49 -235.49)"/><path class="cls-1" d="M612,238.88S494,379,495,382,608,656,608,656L542,383Z" transform="translate(-494.49 -235.49)"/><path class="cls-1" d="M664.13,238.88S782.13,379,781.13,382s-113,274-113,274l66-273Z" transform="translate(-494.49 -235.49)"/><path class="cls-1" d="M666,238.88" transform="translate(-494.49 -235.49)"/><polygon class="cls-2" points="188.68 180.22 145.33 392.39 102.77 180.22 145.33 69.39 188.68 180.22"/><path class="cls-1" d="M639.82,627.88" transform="translate(-494.49 -235.49)"/></svg>